<svg xmlns="http://www.w3.org/2000/svg" xmlns:xlink="http://www.w3.org/1999/xlink" width="40" zoomAndPan="magnify" viewBox="0 0 30 30.000001" height="40" preserveAspectRatio="xMidYMid meet" version="1.0"><defs><clipPath id="id1"><path d="M 7.703125 3.199219 L 22.21875 3.199219 L 22.21875 26.421875 L 7.703125 26.421875 Z M 7.703125 3.199219 " clip-rule="nonzero"/></clipPath></defs><g clip-path="url(#id1)"><path fill="rgb(0%, 0%, 0%)" d="M 7.703125 18.820312 C 7.703125 22.902344 10.949219 26.207031 14.960938 26.207031 C 18.972656 26.207031 22.21875 22.902344 22.21875 18.820312 L 22.21875 14.601562 L 7.703125 14.601562 Z M 19.234375 6.550781 L 21.410156 4.332031 L 20.5625 3.457031 L 18.175781 5.894531 C 17.203125 5.398438 16.125 5.105469 14.960938 5.105469 C 13.800781 5.105469 12.722656 5.398438 11.757812 5.894531 L 9.363281 3.457031 L 8.511719 4.332031 L 10.691406 6.550781 C 8.886719 7.890625 7.703125 10.042969 7.703125 12.488281 L 7.703125 13.542969 L 22.21875 13.542969 L 22.21875 12.488281 C 22.21875 10.042969 21.039062 7.890625 19.234375 6.550781 Z M 11.851562 11.433594 C 11.28125 11.433594 10.8125 10.960938 10.8125 10.378906 C 10.8125 9.800781 11.28125 9.324219 11.851562 9.324219 C 12.421875 9.324219 12.886719 9.800781 12.886719 10.378906 C 12.886719 10.960938 12.421875 11.433594 11.851562 11.433594 Z M 18.074219 11.433594 C 17.503906 11.433594 17.035156 10.960938 17.035156 10.378906 C 17.035156 9.800781 17.503906 9.324219 18.074219 9.324219 C 18.644531 9.324219 19.109375 9.800781 19.109375 10.378906 C 19.109375 10.960938 18.644531 11.433594 18.074219 11.433594 Z M 18.074219 11.433594 " fill-opacity="1" fill-rule="nonzero"/></g></svg>